<?xml version="1.0" encoding="utf-8"?>
<!-- Generator: Adobe Illustrator 21.1.0, SVG Export Plug-In . SVG Version: 6.00 Build 0)  -->
<svg version="1.1" id="Layer_1" xmlns="http://www.w3.org/2000/svg" xmlns:xlink="http://www.w3.org/1999/xlink" x="0px" y="0px"
	 viewBox="0 0 1400 980" style="enable-background:new 0 0 1400 980;" xml:space="preserve">
<style type="text/css">
	.st0{fill:none;}
	.st1{enable-background:new    ;}
	.st2{clip-path:url(#SVGID_2_);}
	.st3{fill:#ADD7D3;}
	.st4{fill:#38C6C0;}
	.st5{fill:#FFFFFF;}
	.st6{fill:#BDDFDC;}
	.st7{fill:#B0D9D5;}
	.st8{fill:#AED7D3;}
	.st9{fill:#F1C639;}
	.st10{fill:#020101;}
	.st11{fill:#EC1C24;}
	.st12{fill:#A90808;}
	.st13{fill:#BB0909;}
	.st14{fill:#A60808;}
	.st15{clip-path:url(#SVGID_4_);enable-background:new    ;}
	.st16{fill:#810606;}
	.st17{fill:#7C0606;}
	.st18{clip-path:url(#SVGID_6_);enable-background:new    ;}
	.st19{fill:#AC0909;}
	.st20{fill:#A70808;}
	.st21{fill:#A30808;}
	.st22{fill:#9E0808;}
	.st23{fill:#990808;}
	.st24{fill:#940707;}
	.st25{fill:#8F0707;}
	.st26{fill:#8B0707;}
	.st27{fill:#860707;}
</style>
<line class="st0" x1="-881.3" y1="547.7" x2="-58.2" y2="1370.9"/>
<g>
	<g>
		<g class="st1">
			<defs>
				<polygon id="SVGID_1_" class="st1" points="792.8,595.4 302.1,487.9 599.2,362.5 1089.9,470 				"/>
			</defs>
			<clipPath id="SVGID_2_">
				<use xlink:href="#SVGID_1_"  style="overflow:visible;"/>
			</clipPath>
			<g class="st2">
				<g>
					<g>
						<g>
							<path class="st3" d="M522.2,427.4l14.5,3.2l0.9-0.4l-12.1-2.7c-0.6-0.1-1.2-0.2-1.8-0.2C523.2,427.3,522.7,427.3,522.2,427.4
								 M476.8,446.3l13.2,2.9c0.5,0.1,0.9,0.2,1.4,0.2c0.5,0,1,0,1.7-0.1l-13.3-2.9c-0.5-0.1-1-0.2-1.4-0.2
								C478,446.1,477.4,446.1,476.8,446.3 M565.9,408.7l13.2,2.9c0.5,0.1,0.9,0.2,1.4,0.2c0.5,0,1,0,1.7-0.1l-13.3-2.9
								c-0.5-0.1-0.9-0.2-1.4-0.2C567,408.5,566.5,408.6,565.9,408.7 M406.2,478.7l-0.7-0.2l8.5-3.6l0.7,0.2L406.2,478.7 M410,472.3
								l-14.2,6c-0.7,0.3-1,0.5-0.9,0.7c0.1,0.2,0.6,0.4,1.5,0.6l9.4,2.1c0.9,0.2,1.7,0.3,2.4,0.2c0.7,0,1.4-0.2,2.1-0.5l14.2-6
								c0.7-0.3,1-0.5,0.9-0.7c-0.1-0.2-0.6-0.4-1.5-0.6l-9.4-2.1c-0.9-0.2-1.7-0.3-2.4-0.2C411.3,471.9,410.6,472,410,472.3
								 M605.6,394.6l-0.7-0.2l8.5-3.6l0.7,0.2L605.6,394.6 M609.4,388.1l-14.2,6c-0.7,0.3-1,0.5-0.9,0.7c0.1,0.2,0.6,0.4,1.5,0.6
								l9.4,2.1c0.9,0.2,1.7,0.3,2.4,0.2c0.7,0,1.4-0.2,2.1-0.5l14.2-6c0.7-0.3,1-0.5,0.9-0.7c-0.1-0.2-0.6-0.4-1.5-0.6l-9.4-2.1
								c-0.9-0.2-1.7-0.3-2.4-0.2C610.7,387.7,610,387.8,609.4,388.1 M536.9,431l-23.8-5.2l6.3-2.7c0.8-0.4,1.7-0.6,2.7-0.6
								c0.9-0.1,2,0,3.2,0.3l17,3.7c1.2,0.3,1.8,0.5,2,0.8c0.2,0.3-0.2,0.6-1,1L536.9,431 M513.3,421.6l-12.3,5.2l36.4,8l12.3-5.2
								c1.7-0.7,2.8-1.3,3.4-1.9c0.6-0.5,0.8-1,0.6-1.4c-0.2-0.4-0.8-0.8-1.7-1.1c-0.9-0.3-2-0.6-3.2-0.9l-18.5-4.1
								c-1.3-0.3-2.6-0.5-3.9-0.6c-1.3-0.2-2.7-0.2-4-0.1c-1.4,0.1-2.8,0.3-4.3,0.6S515,420.9,513.3,421.6 M497.3,448.2
								c-1.9,0.8-3.4,1.2-4.6,1.3c-1.2,0.1-2.2,0-3.1-0.2l-18.8-4.1c-0.9-0.2-1.4-0.5-1.5-0.8c-0.1-0.4,0.8-0.9,2.7-1.7
								c1.9-0.8,3.4-1.2,4.6-1.3c1.2-0.1,2.2,0,3.1,0.2l18.8,4.1c0.9,0.2,1.4,0.5,1.6,0.8C500.1,446.9,499.2,447.4,497.3,448.2
								 M465.4,441.3c-3.9,1.7-5.8,3-5.6,3.9c0.2,0.9,1.6,1.7,4.2,2.3l20.6,4.5c2.6,0.6,5.4,0.7,8.4,0.5c3-0.2,6.5-1.2,10.4-2.8
								c3.9-1.7,5.8-3,5.6-3.9c-0.2-1-1.5-1.7-4.2-2.3l-20.6-4.5c-2.6-0.6-5.5-0.7-8.5-0.5C472.8,438.7,469.3,439.7,465.4,441.3
								 M586.3,410.6c-1.9,0.8-3.4,1.2-4.6,1.3c-1.2,0.1-2.2,0-3.1-0.2l-18.8-4.1c-0.9-0.2-1.4-0.5-1.5-0.8
								c-0.1-0.4,0.8-0.9,2.7-1.7c1.9-0.8,3.4-1.2,4.6-1.3c1.2-0.1,2.2,0,3.1,0.2l18.8,4.1c0.9,0.2,1.4,0.5,1.6,0.8
								C589.1,409.3,588.2,409.8,586.3,410.6 M554.5,403.7c-3.9,1.7-5.8,3-5.6,3.9c0.2,0.9,1.6,1.7,4.2,2.3l20.6,4.5
								c2.6,0.6,5.4,0.7,8.4,0.5c3-0.2,6.5-1.2,10.4-2.8c3.9-1.7,5.8-3,5.6-3.9c-0.2-1-1.5-1.7-4.2-2.3l-20.6-4.5
								c-2.6-0.6-5.5-0.7-8.5-0.5C561.9,401.1,558.4,402.1,554.5,403.7 M462.6,466.8c-3.4,1.4-6.4,2.2-8.9,2.4
								c-2.5,0.2-5.4-0.1-8.6-0.8l-19.6-4.3c-3.3-0.7-5.1-1.5-5.4-2.3c-0.3-0.8,1.3-1.9,4.7-3.3l8.8-3.7l0.7,0.2l-8.8,3.7
								c-3.1,1.3-4.6,2.3-4.4,3.1c0.2,0.7,1.8,1.5,4.9,2.1l19.6,4.3c3,0.7,5.7,0.9,8,0.7c2.3-0.2,5.1-0.9,8.2-2.3l8.8-3.7l0.7,0.2
								L462.6,466.8 M430.3,452.2l-12.9,5.5c-4.4,1.9-6.5,3.5-6.3,4.9c0.2,1.4,2.8,2.7,7.6,3.7l21.8,4.8c4.9,1.1,9.5,1.4,14,1
								c4.5-0.4,8.9-1.5,13.3-3.4l12.9-5.5c0.7-0.3,1-0.5,0.9-0.7c-0.1-0.2-0.6-0.4-1.5-0.6l-8.3-1.8c-0.9-0.2-1.7-0.3-2.4-0.2
								c-0.7,0-1.4,0.2-2.1,0.5l-10.6,4.5c-1.1,0.5-2.2,0.7-3.2,0.9c-1.1,0.1-2.2,0-3.3-0.2l-16.7-3.6c-1.2-0.3-1.8-0.6-1.8-0.9
								c0-0.4,0.5-0.8,1.6-1.2l10.6-4.5c0.7-0.3,1-0.5,0.9-0.7c-0.1-0.2-0.6-0.4-1.5-0.6l-8.5-1.9c-0.9-0.2-1.7-0.3-2.4-0.2
								C431.7,451.8,431,451.9,430.3,452.2 M537.6,435.2l-37.8-8.3l12.8-5.4c1.8-0.8,3.5-1.3,5.1-1.7c1.6-0.4,3.2-0.6,4.6-0.6
								c1.5-0.1,2.9,0,4.3,0.2c1.4,0.2,2.8,0.4,4.1,0.7l18.5,4.1c1.4,0.3,2.5,0.6,3.5,1c1,0.3,1.6,0.7,1.8,1.2
								c0.2,0.4,0,0.9-0.6,1.5c-0.6,0.6-1.9,1.3-3.7,2L537.6,435.2 M507.5,419.6l-17.8,7.5c-0.7,0.3-1,0.5-0.9,0.7s0.6,0.4,1.5,0.6
								l45.3,9.9c0.9,0.2,1.7,0.3,2.4,0.2s1.4-0.2,2.1-0.5l17.8-7.5c4.4-1.9,6.5-3.5,6.3-4.9c-0.2-1.4-2.7-2.6-7.6-3.7l-21.8-4.8
								c-4.9-1.1-9.5-1.4-14-1C516.4,416.6,511.9,417.7,507.5,419.6 M504.2,449.8c-4.1,1.7-7.8,2.7-11,3c-3.2,0.2-6.2,0.1-9-0.6
								l-20.6-4.5c-2.8-0.6-4.3-1.4-4.6-2.4c-0.3-1,1.7-2.4,5.8-4.1c4.1-1.7,7.8-2.7,11.1-3c3.3-0.3,6.3-0.1,9.1,0.5l20.6,4.5
								c2.8,0.6,4.3,1.4,4.5,2.5C510.3,446.7,508.4,448.1,504.2,449.8 M458.3,439.7c-3.3,1.4-5.7,2.6-7.1,3.7
								c-1.5,1.1-2.2,2-2.1,2.8c0,0.8,0.7,1.5,2,2.1c1.3,0.6,3,1.1,5.1,1.6l23.9,5.2c2.1,0.5,4.3,0.8,6.6,1c2.2,0.2,4.6,0.2,7-0.1
								c2.5-0.2,5.1-0.7,8-1.5c2.9-0.8,5.9-1.8,9.2-3.2c3.3-1.4,5.6-2.6,7.1-3.7c1.4-1.1,2.1-2,2.1-2.8c0-0.8-0.7-1.5-1.9-2.1
								c-1.3-0.6-3-1.1-5.1-1.6l-23.9-5.2c-2.1-0.5-4.3-0.8-6.6-1c-2.2-0.2-4.6-0.2-7.1,0.1c-2.5,0.2-5.1,0.7-8,1.5
								C464.6,437.2,461.6,438.3,458.3,439.7 M593.3,412.2c-4.1,1.7-7.8,2.7-11,3c-3.2,0.2-6.2,0.1-9-0.6l-20.6-4.5
								c-2.8-0.6-4.3-1.4-4.6-2.4c-0.3-1,1.7-2.4,5.8-4.1c4.1-1.7,7.8-2.7,11.1-3c3.3-0.3,6.3-0.1,9.1,0.5l20.6,4.5
								c2.8,0.6,4.3,1.4,4.5,2.5C599.4,409.1,597.4,410.5,593.3,412.2 M547.4,402.1c-3.3,1.4-5.7,2.6-7.1,3.7
								c-1.5,1.1-2.2,2-2.1,2.8c0,0.8,0.7,1.5,2,2.1c1.3,0.6,3,1.1,5.1,1.6l23.9,5.2c2.1,0.5,4.3,0.8,6.6,1c2.2,0.2,4.6,0.2,7-0.1
								c2.5-0.2,5.1-0.7,8-1.5c2.8-0.8,5.9-1.8,9.2-3.2c3.3-1.4,5.6-2.6,7.1-3.7c1.4-1.1,2.1-2,2.1-2.8c0-0.8-0.7-1.5-1.9-2.1
								c-1.3-0.6-3-1.1-5.1-1.6l-23.9-5.2c-2.1-0.5-4.3-0.8-6.6-1c-2.2-0.2-4.6-0.2-7.1,0.1c-2.5,0.2-5.1,0.7-8,1.5
								C553.7,399.7,550.6,400.7,547.4,402.1 M648.5,419.3l51-21.5c0.7-0.3,2.1-0.4,3.1-0.2l67.4,14.8l67.4,14.8l67.4,14.8
								l67.4,14.8l67.4,14.8c1,0.2,1.2,0.6,0.4,0.9l-51,21.5l-51,21.5l-51,21.5l-51,21.5l-51,21.5c-0.7,0.3-2.1,0.4-3.1,0.2
								l-67.4-14.8l-67.4-14.8l-67.4-14.8l-67.4-14.8l-67.4-14.8c-1-0.2-1.2-0.6-0.4-0.9l51-21.5l51-21.5l51-21.5L648.5,419.3
								 M411.7,486.2c-0.8,0.4-1.7,0.6-2.6,0.6c-0.9,0.1-1.9,0-3.1-0.3l-9.4-2.1c-0.6-0.1-1.1-0.3-1.4-0.4c-0.3-0.1-0.5-0.3-0.5-0.5
								L394,479c0-0.1,0.1-0.2,0.3-0.4c0.2-0.2,0.5-0.3,0.8-0.5l14.2-6c0.8-0.4,1.7-0.6,2.6-0.6c0.9-0.1,1.9,0,3.1,0.3l9.4,2.1
								c0.6,0.1,1.1,0.3,1.4,0.4c0.3,0.1,0.5,0.3,0.5,0.5l0.8,4.6c0,0.1-0.1,0.3-0.3,0.4c-0.2,0.1-0.4,0.3-0.8,0.4L411.7,486.2
								 M611.1,402c-0.8,0.4-1.7,0.6-2.6,0.6c-0.9,0.1-1.9,0-3.1-0.3l-9.4-2.1c-0.6-0.1-1.1-0.3-1.4-0.4c-0.3-0.1-0.5-0.3-0.5-0.5
								l-0.8-4.6c0-0.1,0.1-0.2,0.3-0.4c0.2-0.2,0.5-0.3,0.8-0.5l14.2-6c0.8-0.4,1.7-0.6,2.6-0.6c0.9-0.1,1.9,0,3.1,0.3l9.4,2.1
								c0.6,0.1,1.1,0.3,1.4,0.4c0.3,0.1,0.5,0.3,0.5,0.5l0.8,4.6c0,0.1-0.1,0.3-0.3,0.4c-0.2,0.1-0.4,0.3-0.8,0.4L611.1,402
								 M469.3,473.4c-4.6,2-9.6,3-15,3.3c-5.4,0.2-10.6-0.2-15.6-1.3l-19.7-4.3c-2.6-0.6-4.5-1.2-5.8-1.8c-1.3-0.7-2.1-1.3-2.2-2.1
								l-0.7-4.6c-0.1-0.7,0.4-1.5,1.5-2.4c1.1-0.8,2.8-1.8,5.1-2.7l12.9-5.5c0.8-0.4,1.7-0.6,2.6-0.6c0.9-0.1,1.9,0,3,0.3l8.5,1.9
								c0.6,0.1,1.1,0.3,1.4,0.4c0.3,0.1,0.5,0.3,0.5,0.5l0.7,4.6c0,0.1,0,0.2-0.2,0.4c-0.2,0.2-0.4,0.3-0.8,0.5l-6.5,2.7l11.8,2.6
								c1,0.2,1.9,0.3,2.8,0.2c0.9-0.1,1.7-0.3,2.6-0.7l10.6-4.5c0.8-0.4,1.7-0.6,2.6-0.6c0.9,0,1.9,0,3,0.3l8.3,1.8
								c0.6,0.1,1.1,0.3,1.4,0.4c0.3,0.1,0.5,0.3,0.5,0.5l0.7,4.6c0,0.1,0,0.2-0.2,0.4c-0.2,0.2-0.4,0.3-0.8,0.5L469.3,473.4
								 M541.6,442.9c-0.8,0.4-1.7,0.6-2.6,0.6c-0.9,0-1.9,0-3-0.3l-45.3-9.9c-0.6-0.1-1.1-0.3-1.4-0.4c-0.3-0.1-0.5-0.3-0.5-0.5
								l-0.8-4.6c0-0.1,0.1-0.2,0.3-0.4c0.2-0.2,0.4-0.3,0.8-0.5l17.8-7.5c4.6-1.9,9.3-3.1,13.9-3.5c4.7-0.4,9.5,0,14.6,1.1
								l21.8,4.8c2.5,0.6,4.4,1.2,5.8,1.8c1.3,0.6,2.1,1.3,2.2,2.1l0.7,4.6c0.1,0.7-0.4,1.5-1.4,2.4c-1.1,0.9-2.7,1.8-5,2.7
								L541.6,442.9 M512.3,455.9c-3.5,1.5-6.8,2.6-9.9,3.3c-3.2,0.7-6.2,1.2-9,1.4c-2.8,0.2-5.5,0.1-8.1-0.1
								c-2.5-0.2-4.9-0.6-7.1-1.1l-21.8-4.8c-2.1-0.5-3.9-1-5.3-1.6c-1.4-0.6-2.1-1.3-2.2-2.1l-0.7-4.6c-0.2-0.8,0.5-1.8,1.9-2.9
								c1.4-1.1,3.9-2.4,7.4-3.9c3.5-1.5,6.7-2.6,9.6-3.3c3-0.8,5.7-1.3,8.3-1.5c2.6-0.2,5-0.3,7.3,0c2.3,0.2,4.6,0.6,6.7,1
								l23.9,5.2c2.1,0.5,3.9,1,5.3,1.6c1.4,0.6,2.1,1.3,2.2,2.1l0.7,4.5c0.2,0.8-0.5,1.8-1.9,2.9
								C518.2,453.1,515.8,454.4,512.3,455.9 M601.3,418.3c-3.5,1.5-6.8,2.5-9.9,3.3c-3.2,0.7-6.2,1.2-9,1.4
								c-2.8,0.2-5.5,0.1-8.1-0.1c-2.5-0.3-4.9-0.6-7.1-1.1l-21.8-4.8c-2.1-0.5-3.9-1-5.3-1.6c-1.4-0.6-2.1-1.3-2.2-2.1l-0.7-4.6
								c-0.2-0.8,0.5-1.8,1.9-2.9c1.4-1.1,3.9-2.4,7.4-3.9c3.5-1.5,6.7-2.6,9.6-3.3c3-0.8,5.7-1.3,8.3-1.5s5-0.3,7.3,0
								c2.3,0.2,4.6,0.6,6.7,1l23.9,5.2c2.1,0.5,3.9,1,5.3,1.6c1.4,0.6,2.1,1.3,2.2,2.1l0.7,4.5c0.2,0.8-0.5,1.8-1.9,2.9
								C607.3,415.5,604.8,416.8,601.3,418.3 M602.7,370.2L327.3,486.5l462,101.2l275.4-116.3L602.7,370.2"/>
							<path class="st4" d="M789.3,587.7l-462-101.2l275.4-116.3l462,101.2L789.3,587.7 M593.8,364.8L307.5,485.6
								c-1.4,0.6-2.1,1.4-1.7,2.1c0.3,0.7,1.6,1.4,3.5,1.8l476.3,104.3c1.9,0.4,4.3,0.6,6.7,0.4c2.4-0.1,4.5-0.6,5.9-1.2
								l286.3-120.9c1.4-0.6,2.1-1.4,1.7-2.1c-0.3-0.7-1.6-1.4-3.5-1.8l-5.4,2.3l-7.2-1.6l7.2,1.6l5.4-2.3L606.4,364
								c-1.9-0.4-4.3-0.6-6.7-0.4C597.4,363.7,595.2,364.2,593.8,364.8"/>
							<path class="st5" d="M743.1,561.5l-1.8,0.7c-0.3,0.1-0.2,0.2,0.2,0.3l18.8,4.1c0.2,0.1,0.4,0.1,0.6,0.1c0.2,0,0.3,0,0.5-0.1
								l1.7-0.7c0.2-0.1,0.3-0.1,0.2-0.2c0,0-0.2-0.1-0.4-0.1l-18.8-4.1C743.7,561.4,743.4,561.4,743.1,561.5 M947,475.4l-1.8,0.7
								c-0.3,0.1-0.2,0.2,0.2,0.3l18.8,4.1c0.2,0.1,0.4,0.1,0.6,0.1c0.2,0,0.3,0,0.5-0.1l1.7-0.7c0.2-0.1,0.3-0.1,0.2-0.2
								c0,0-0.2-0.1-0.4-0.1l-18.8-4.1C947.6,475.3,947.3,475.3,947,475.4 M989.1,472.7l-4-2l5-2.1l25.1,5.5l1.6-0.7l5.7,1.3
								l-7.9,3.3l-5.7-1.3l1.5-0.6l-19.4-4.2L989.1,472.7 M975.1,459.1l13.9,32.6l46-19.4L975.1,459.1 M785.2,558.8l-4-2l5-2.1
								l25.1,5.5l1.6-0.7l5.7,1.3l-7.9,3.3l-5.7-1.3l1.5-0.6l-19.4-4.2L785.2,558.8 M771.3,545.1l13.9,32.6l46-19.4L771.3,545.1
								 M764.9,568.6c-1.1,0.5-2.3,0.7-3.6,0.7c-1.3,0-2.6-0.1-3.8-0.3l-22.4-4.9c-1.2-0.3-2-0.6-2.3-1c-0.3-0.4,0.1-0.8,1.2-1.3
								l5.7-2.4c1.1-0.5,2.3-0.7,3.6-0.7c1.3,0,2.6,0.1,3.8,0.3l22.4,4.9c1.2,0.3,2,0.6,2.3,1c0.3,0.4-0.1,0.8-1.2,1.3L764.9,568.6
								 M767.4,544.2l-48.3,20.4l62.4,13.7L767,544.4l1-0.1L767.4,544.2 M818.3,522.7L770,543.1l63.9,14l48.3-20.4L818.3,522.7
								 M869.3,501.2L821,521.6l63.9,14l48.3-20.4L869.3,501.2 M920.2,479.7l-48.3,20.4l63.9,14l48.3-20.4L920.2,479.7 M968.7,482.6
								c-1.1,0.5-2.3,0.7-3.6,0.7c-1.3,0-2.6-0.1-3.8-0.3l-22.4-4.9c-1.2-0.3-2-0.6-2.3-1c-0.3-0.4,0.1-0.8,1.2-1.3l5.7-2.4
								c1.1-0.5,2.3-0.7,3.6-0.7c1.3,0,2.6,0.1,3.8,0.3l22.4,4.9c1.2,0.3,2,0.6,2.3,1c0.3,0.4-0.1,0.8-1.2,1.3L968.7,482.6
								 M971.2,458.2l-48.3,20.4l62.4,13.7l-14.5-33.9l1-0.1L971.2,458.2 M700,529.5l-47.5,20.1l0.1,0.3l-0.9,0l0,0l63.9,14
								l48.3-20.4L700,529.5 M750.9,508l-48.3,20.4l63.9,14l48.3-20.4L750.9,508 M801.9,486.5l-48.3,20.4l63.9,14l48.3-20.4
								L801.9,486.5 M852.8,464.9l-48.3,20.4l63.9,14l48.3-20.4L852.8,464.9 M903.8,443.4l-47.5,20.1l0.1,0.3l-0.9,0l0,0l63.9,14
								l48.3-20.4L903.8,443.4 M841.9,429.9l13.6,31.7l44.8-18.9L841.9,429.9 M638.1,515.9l13.6,31.7l44.8-18.9L638.1,515.9
								 M632.6,514.7l-48.3,20.4l63.9,14l0.1,0l-14.5-33.9l1-0.1L632.6,514.7 M683.6,493.2l-48.3,20.4l63.9,14l48.3-20.4
								L683.6,493.2 M748.3,494.9l-8.9-3.4l-14.1,1.3l8.2-3.8l-7.7-3.7l13.9,1.1l9.3-3.6l0.4,4.5l13.5,1.5l-13.6,1.7L748.3,494.9
								 M734.5,471.7l-48.3,20.4l63.9,14l48.3-20.4L734.5,471.7 M785.5,450.2l-48.3,20.4l63.9,14l48.3-20.4L785.5,450.2
								 M836.4,428.7l-48.3,20.4l63.9,14l0.1,0l-14.5-33.8l1-0.1L836.4,428.7 M565.2,500l-48.3,20.4l63.9,14l48.3-20.4L565.2,500
								 M616.2,478.4l-48.3,20.4l63.9,14l48.3-20.4L616.2,478.4 M667.1,456.9l-48.3,20.4l63.9,14l48.3-20.4L667.1,456.9
								 M718.1,435.4l-48.3,20.4l63.9,14l48.3-20.4L718.1,435.4 M769,413.9l-48.3,20.4l63.9,14l48.3-20.4L769,413.9 M474.4,502.6
								l-1.8,0.7c-0.3,0.1-0.2,0.2,0.2,0.3l18.8,4.1c0.2,0.1,0.4,0.1,0.6,0.1c0.2,0,0.3,0,0.5-0.1l1.7-0.7c0.2-0.1,0.3-0.1,0.2-0.2
								s-0.2-0.1-0.4-0.1l-18.8-4.1C475,502.5,474.6,502.5,474.4,502.6 M678.2,416.6l-1.8,0.7c-0.3,0.1-0.2,0.2,0.2,0.3l18.8,4.1
								c0.2,0.1,0.4,0.1,0.6,0.1c0.2,0,0.3,0,0.5-0.1l1.7-0.7c0.2-0.1,0.3-0.1,0.2-0.2c-0.1,0-0.2-0.1-0.4-0.1l-18.8-4.1
								C678.8,416.4,678.5,416.4,678.2,416.6 M516.5,499.9l-4-2l5-2.1l25.1,5.5l1.6-0.7l5.7,1.3l-7.9,3.3l-5.7-1.3l1.5-0.6
								l-19.4-4.2L516.5,499.9 M503.5,486.4l13.5,31.6l44.7-18.9L503.5,486.4 M720.3,413.8l-4-2l5-2.1l25.1,5.5l1.6-0.7l5.7,1.3
								l-7.9,3.3l-5.7-1.3l1.5-0.6l-19.4-4.2L720.3,413.8 M705,399.9l14.1,32.9l46.5-19.6L705,399.9 M496.1,509.8
								c-1.1,0.5-2.3,0.7-3.6,0.7c-1.3,0-2.6-0.1-3.8-0.3l-22.4-4.9c-1.2-0.3-2-0.6-2.3-1c-0.3-0.4,0.1-0.8,1.2-1.3l5.7-2.4
								c1.1-0.5,2.3-0.7,3.6-0.7c1.3,0,2.6,0.1,3.8,0.3l22.4,4.9c1.2,0.3,2,0.6,2.3,1c0.3,0.4-0.1,0.8-1.2,1.3L496.1,509.8
								 M497.9,485.2l-48.3,20.4l63.9,14l1.6-0.7l-1.7,0.1l-14.3-33.5L497.9,485.2 M548.8,463.7l-48.3,20.4l0,0l2-0.1l0.3,0.6
								l61.6,13.5l48.3-20.4L548.8,463.7 M599.8,442.2l-48.3,20.4l63.9,14l48.3-20.4L599.8,442.2 M650.7,420.7l-48.3,20.4l63.9,14
								l48.3-20.4L650.7,420.7 M699.9,423.7c-1.1,0.5-2.3,0.7-3.6,0.7c-1.3,0-2.6-0.1-3.8-0.3l-22.4-4.9c-1.2-0.3-2-0.6-2.3-1
								c-0.3-0.4,0.1-0.8,1.2-1.3l5.7-2.4c1.1-0.5,2.3-0.7,3.6-0.7c1.3,0,2.6,0.1,3.8,0.3l22.4,4.9c1.2,0.3,2,0.6,2.3,1
								c0.3,0.4-0.1,0.8-1.2,1.3L699.9,423.7 M700.8,399.5l-47.4,20l61.8,13.5L700.8,399.5"/>
							<path class="st3" d="M512.5,521.1l67.4,14.8c-1-0.2-1.2-0.6-0.4-0.9l1.3-0.6l-63.9-14l-1.3,0.6
								C514.9,521.2,513.5,521.3,512.5,521.1"/>
							<polyline class="st6" points="731,470.9 682.7,491.3 684.5,491.7 686.2,492.1 734.5,471.7 732.8,471.3 731,470.9 							"/>
							<path class="st7" d="M669.8,455.8l-1.3,0.6l-1.3,0.6l63.9,14l1.8,0.4c-1-0.2-1.2-0.6-0.4-0.9l1.3-0.6L669.8,455.8"/>
							<polyline class="st7" points="567.9,498.8 566.6,499.4 565.2,500 629.1,514 630.4,513.4 631.8,512.8 567.9,498.8 							"/>
							<path class="st7" d="M618.8,477.3l-1.3,0.6l-1.3,0.6l63.9,14l1.3-0.6c0.7-0.3,2.1-0.4,3.1-0.2l-1.8-0.4L618.8,477.3"/>
							<path class="st3" d="M769.9,412.4c1,0.2,1.2,0.6,0.4,0.9l63.9,14c0.7-0.3,2.1-0.4,3.1-0.2L769.9,412.4"/>
							<polyline class="st6" points="770.4,413.4 720.7,434.3 784.6,448.3 720.7,434.3 769,413.9 832.9,427.9 834.2,427.4 
								770.4,413.4 							"/>
							<polyline class="st7" points="720.7,434.3 719.4,434.9 718.1,435.4 782,449.4 783.3,448.9 784.6,448.3 720.7,434.3 							
								"/>
							<path class="st3" d="M579.9,535.8l67.4,14.8c-1-0.2-1.2-0.6-0.4-0.9l1.3-0.6l-63.9-14l-1.3,0.6
								C582.2,536,580.9,536.1,579.9,535.8"/>
							<path class="st3" d="M580.8,534.3l-1.3,0.6c-0.7,0.3-0.5,0.7,0.4,0.9c1,0.2,2.3,0.1,3.1-0.2l1.3-0.6L580.8,534.3"/>
							<polyline class="st7" points="629.1,514 580.8,534.3 584.3,535.1 632.6,514.7 630.9,514.3 629.1,514 							"/>
							<path class="st8" d="M630.4,513.4l-1.3,0.6l1.8,0.4C629.9,514.1,629.7,513.7,630.4,513.4"/>
							<polyline class="st6" points="737.2,470.6 735.8,471.1 734.5,471.7 798.4,485.7 799.7,485.1 801,484.6 737.2,470.6 							
								"/>
							<path class="st7" d="M782,449.4l-48.3,20.4l1.8,0.4c1,0.2,1.2,0.6,0.4,0.9l1.3-0.6l48.3-20.4l-1.7-0.4L782,449.4"/>
							<path class="st7" d="M732.8,471.3l1.7,0.4l1.3-0.6C735.1,471.4,733.7,471.5,732.8,471.3"/>
							<path class="st8" d="M733.7,469.8l-1.3,0.6c-0.7,0.3-0.5,0.7,0.4,0.9c1,0.2,2.3,0.1,3.1-0.2c0.7-0.3,0.5-0.7-0.4-0.9
								L733.7,469.8"/>
							<path class="st8" d="M783.3,448.9l-1.3,0.6l1.8,0.4C782.8,449.6,782.6,449.2,783.3,448.9"/>
							<polyline class="st6" points="686.2,492.1 684.9,492.7 683.6,493.2 747.4,507.2 748.8,506.6 750.1,506.1 686.2,492.1 							
								"/>
							<path class="st7" d="M684.5,491.7c1,0.2,1.2,0.6,0.4,0.9l1.3-0.6L684.5,491.7"/>
							<path class="st7" d="M680.1,492.4l-48.3,20.4l1.8,0.4l1.7,0.4l48.3-20.4l1.3-0.6c-0.7,0.3-2.1,0.4-3.1,0.2L680.1,492.4"/>
							<path class="st8" d="M631.8,512.8l-1.3,0.6c0.7-0.3,2.1-0.4,3.1-0.2L631.8,512.8"/>
							<path class="st8" d="M681.4,491.9l-1.3,0.6l1.8,0.4c1,0.2,2.3,0.1,3.1-0.2c0.7-0.3,0.5-0.7-0.4-0.9
								C683.5,491.5,682.1,491.6,681.4,491.9"/>
							<polyline class="st7" points="635.3,513.6 633.9,514.2 632.6,514.7 634.7,515.2 637.7,515 638.1,515.9 696.5,528.7 
								697.8,528.2 699.1,527.6 635.3,513.6 							"/>
							<path class="st8" d="M630.9,514.3l1.7,0.4l1.3-0.6C633.2,514.5,631.8,514.5,630.9,514.3"/>
							<path class="st8" d="M633.5,513.2c1,0.2,1.2,0.6,0.4,0.9l1.3-0.6L633.5,513.2"/>
							<path class="st3" d="M630.4,513.4c-0.7,0.3-0.5,0.7,0.4,0.9c1,0.2,2.3,0.1,3.1-0.2c0.7-0.3,0.5-0.7-0.4-0.9
								C632.5,513,631.2,513.1,630.4,513.4"/>
							<path class="st3" d="M837.3,427.2c1,0.2,1.2,0.6,0.4,0.9l63.9,14c0.7-0.3,2.1-0.4,3.1-0.2L837.3,427.2"/>
							<polyline class="st6" points="837.7,428.1 836.4,428.7 838.5,429.1 841.5,429 841.9,429.9 900.3,442.7 901.6,442.1 
								837.7,428.1 							"/>
							<path class="st3" d="M834.2,427.4l3.5,0.8c0.7-0.3,0.5-0.7-0.4-0.9C836.4,427,835,427,834.2,427.4"/>
							<polyline class="st7" points="834.2,427.4 832.9,427.9 784.6,448.3 786.4,448.7 788.1,449.1 836.4,428.7 837.7,428.1 
								834.2,427.4 							"/>
							<path class="st8" d="M784.6,448.3l-1.3,0.6c0.7-0.3,2.1-0.4,3.1-0.2L784.6,448.3"/>
							<polyline class="st7" points="788.1,449.1 786.8,449.6 785.5,450.2 849.3,464.2 850.7,463.6 852,463.1 788.1,449.1 							
								"/>
							<path class="st8" d="M783.7,449.8l1.7,0.4l1.3-0.6C786.1,449.9,784.7,450,783.7,449.8"/>
							<path class="st8" d="M786.4,448.7c1,0.2,1.2,0.6,0.4,0.9l1.3-0.6L786.4,448.7"/>
							<path class="st3" d="M783.3,448.9c-0.7,0.3-0.5,0.7,0.4,0.9c1,0.2,2.3,0.1,3.1-0.2c0.7-0.3,0.5-0.7-0.4-0.9
								C785.4,448.5,784,448.6,783.3,448.9"/>
							<path class="st3" d="M647.3,550.6l67.4,14.8c-1-0.2-1.2-0.6-0.4-0.9l1.3-0.6l-63.9-14l-1.3,0.6
								C649.6,550.7,648.2,550.8,647.3,550.6"/>
							<path class="st3" d="M648.2,549.1l-1.3,0.6c-0.7,0.3-0.5,0.7,0.4,0.9c1,0.2,2.3,0.1,3.1-0.2l1.3-0.6l0,0l-3,0.2L648.2,549.1
								L648.2,549.1"/>
							<path class="st7" d="M651.6,549.9L651.6,549.9L651.6,549.9L651.6,549.9 M648.2,549.1L648.2,549.1L648.2,549.1L648.2,549.1
								 M696.5,528.7l-44.8,18.9l0.8,1.9l47.5-20.1l-1.7-0.4L696.5,528.7"/>
							<path class="st8" d="M697.8,528.2l-1.3,0.6l1.8,0.4C697.3,528.9,697.1,528.5,697.8,528.2"/>
							<path class="st7" d="M849.3,464.2L801,484.6l-1.3,0.6c0.7-0.3,2.1-0.4,3.1-0.2l1.7,0.4l48.3-20.4l-1.7-0.4L849.3,464.2"/>
							<path class="st8" d="M850.7,463.6l-1.3,0.6l1.8,0.4C850.1,464.4,849.9,463.9,850.7,463.6"/>
							<polyline class="st6" points="798.4,485.7 750.1,506.1 751.8,506.5 753.6,506.9 801.9,486.5 800.1,486.1 798.4,485.7 							
								"/>
							<path class="st7" d="M799.7,485.1l-1.3,0.6l1.8,0.4C799.2,485.9,799,485.4,799.7,485.1"/>
							<path class="st7" d="M750.1,506.1l-1.3,0.6c0.7-0.3,2.1-0.4,3.1-0.2L750.1,506.1"/>
							<path class="st7" d="M800.1,486.1l1.7,0.4l63.9,14l1.3-0.6l1.3-0.6l-63.9-14l-1.3,0.6C802.5,486.2,801.1,486.3,800.1,486.1"
								/>
							<path class="st8" d="M799.7,485.1c-0.7,0.3-0.5,0.7,0.4,0.9c1,0.2,2.3,0.1,3.1-0.2l1.3-0.6l-1.7-0.4
								C801.8,484.8,800.4,484.8,799.7,485.1"/>
							<path class="st7" d="M748.8,506.6l-1.3,0.6l-48.3,20.4l1.8,0.4l1.7,0.4l48.3-20.4l-1.7-0.4C748.2,507.4,748,507,748.8,506.6"
								/>
							<path class="st8" d="M699.1,527.6l-1.3,0.6c0.7-0.3,2.1-0.4,3.1-0.2L699.1,527.6"/>
							<polyline class="st7" points="702.6,528.4 701.3,528.9 700,529.5 763.9,543.5 765.2,542.9 766.5,542.4 702.6,528.4 							
								"/>
							<path class="st8" d="M698.2,529.1l1.7,0.4l1.3-0.6C700.6,529.2,699.2,529.3,698.2,529.1"/>
							<path class="st8" d="M700.9,528c1,0.2,1.2,0.6,0.4,0.9l1.3-0.6L700.9,528"/>
							<path class="st3" d="M697.8,528.2c-0.7,0.3-0.5,0.7,0.4,0.9c1,0.2,2.3,0.1,3.1-0.2c0.7-0.3,0.5-0.7-0.4-0.9
								C699.9,527.8,698.5,527.8,697.8,528.2"/>
							<path class="st7" d="M751.8,506.5c1,0.2,1.2,0.6,0.4,0.9l-1.3,0.6l63.9,14l1.3-0.6l1.3-0.6l-63.9-14L751.8,506.5"/>
							<path class="st8" d="M748.8,506.6c-0.7,0.3-0.5,0.7,0.4,0.9l1.7,0.4l1.3-0.6c0.7-0.3,0.5-0.7-0.4-0.9
								C750.9,506.3,749.5,506.3,748.8,506.6"/>
							<path class="st3" d="M904.7,441.9c1,0.2,1.2,0.6,0.4,0.9l63.9,14c0.7-0.3,2.1-0.4,3.1-0.2L904.7,441.9"/>
							<polyline class="st6" points="905.1,442.9 903.8,443.4 967.7,457.4 969,456.9 905.1,442.9 							"/>
							<path class="st3" d="M901.6,442.1l3.5,0.8c0.7-0.3,0.5-0.7-0.4-0.9C903.7,441.7,902.4,441.8,901.6,442.1"/>
							<path class="st7" d="M855.4,463.8L855.4,463.8L855.4,463.8L855.4,463.8 M852,463L852,463L852,463L852,463 M901.6,442.1
								l-1.3,0.6l-44.8,18.9l0.8,1.9l47.5-20.1l1.3-0.6L901.6,442.1"/>
							<path class="st8" d="M852,463.1l-1.3,0.6c0.4-0.2,0.9-0.3,1.5-0.3L852,463.1L852,463.1"/>
							<polyline class="st7" points="855.5,463.8 854.2,464.4 852.8,464.9 916.7,478.9 918,478.4 919.4,477.8 855.5,463.8 							
								"/>
							<path class="st8" d="M851.1,464.6l1.7,0.4l1.3-0.6C853.4,464.7,852.1,464.8,851.1,464.6"/>
							<path class="st8" d="M854.6,463.9c0.1,0.2,0,0.4-0.4,0.5l1.3-0.6l0,0L854.6,463.9"/>
							<path class="st3" d="M850.7,463.6c-0.7,0.3-0.5,0.7,0.4,0.9c1,0.2,2.3,0.1,3.1-0.2c0.4-0.2,0.5-0.3,0.4-0.5l-2.1,0.1
								l-0.3-0.6C851.6,463.4,851,463.5,850.7,463.6"/>
							<path class="st3" d="M714.7,565.4l67.4,14.8c1,0.2,2.3,0.1,3.1-0.2l51-21.5c-0.7,0.3-1.9,0.4-2.9,0.2l-47.5,20.1l0.1,0.3
								l-0.9,0.1l0,0l0,0l-3,0.2l-0.4-0.9l-62.4-13.7l-1.3,0.6C717,565.5,715.6,565.6,714.7,565.4"/>
							<path class="st6" d="M784.8,579L784.8,579L784.8,579L784.8,579 M771.3,545.1l59.9,13.1l-46,19.4l0.5,1.1l47.5-20.1
								c-0.1,0-0.1,0-0.2,0L771.3,545.1 M719.1,564.6l62.4,13.7L719.1,564.6"/>
							<path class="st3" d="M715.6,563.9l-1.3,0.6c-0.7,0.3-0.5,0.7,0.4,0.9c1,0.2,2.3,0.1,3.1-0.2l1.3-0.6L715.6,563.9"/>
							<polyline class="st7" points="763.9,543.5 715.6,563.9 719.1,564.6 767.4,544.2 765.6,543.9 763.9,543.5 							"/>
							<path class="st8" d="M765.2,542.9l-1.3,0.6l1.8,0.4C764.7,543.6,764.5,543.2,765.2,542.9"/>
							<path class="st3" d="M986.1,494.1l-48.3,20.4c0.8,0.2,0.9,0.6,0.2,0.9l51-21.5C988.2,494.2,987,494.3,986.1,494.1"/>
							<path class="st6" d="M920.2,479.7l63.9,14l-48.3,20.4l1.7,0.4c0.1,0,0.1,0,0.2,0l48.3-20.4c-0.1,0-0.1,0-0.2,0L920.2,479.7"
								/>
							<polyline class="st7" points="916.7,478.9 868.4,499.3 870.2,499.7 871.9,500.1 920.2,479.7 918.5,479.3 916.7,478.9 							
								"/>
							<path class="st8" d="M868.4,499.3l-1.3,0.6c0.7-0.3,2.1-0.4,3.1-0.2L868.4,499.3"/>
							<path class="st8" d="M918,478.4l-1.3,0.6l1.8,0.4C917.5,479.1,917.3,478.7,918,478.4"/>
							<path class="st3" d="M935.1,515.6L886.8,536c0.8,0.2,0.9,0.6,0.2,0.9l51-21.5C937.3,515.7,936,515.8,935.1,515.6"/>
							<path class="st6" d="M933.2,515.2l-48.3,20.4l1.7,0.4c0.1,0,0.1,0,0.2,0l48.3-20.4c-0.1,0-0.1,0-0.2,0L933.2,515.2"/>
							<polyline class="st7" points="865.8,500.5 817.5,520.8 819.2,521.2 821,521.6 869.3,501.2 867.5,500.8 865.8,500.5 							
								"/>
							<path class="st8" d="M867.1,499.9l-1.3,0.6l1.8,0.4C866.6,500.6,866.4,500.2,867.1,499.9"/>
							<path class="st8" d="M817.5,520.8l-1.3,0.6c0.7-0.3,2.1-0.4,3.1-0.2L817.5,520.8"/>
							<path class="st3" d="M937.7,514.5l-2.6,1.1c0.9,0.2,2.2,0.1,2.9-0.2C938.6,515.1,938.5,514.7,937.7,514.5"/>
							<path class="st7" d="M871.9,500.1l-1.3,0.6l-1.3,0.6l63.9,14l1.7,0.4c0.1,0,0.1,0,0.2,0l2.6-1.1c-0.1,0-0.1,0-0.2,0l-1.7-0.4
								L871.9,500.1"/>
							<path class="st8" d="M870.2,499.7c1,0.2,1.2,0.6,0.4,0.9l1.3-0.6L870.2,499.7"/>
							<path class="st8" d="M867.5,500.8l1.7,0.4l1.3-0.6C869.9,501,868.5,501,867.5,500.8"/>
							<path class="st3" d="M867.1,499.9c-0.7,0.3-0.5,0.7,0.4,0.9c1,0.2,2.3,0.1,3.1-0.2s0.5-0.7-0.4-0.9
								C869.2,499.5,867.8,499.6,867.1,499.9"/>
							<path class="st3" d="M884.1,537.1l-48.3,20.4c0.8,0.2,0.9,0.6,0.2,0.9l51-21.5C886.3,537.2,885.1,537.3,884.1,537.1"/>
							<path class="st6" d="M770,543.1l65.6,14.4c0.1,0,0.1,0,0.2,0l48.3-20.4c-0.1,0-0.1,0-0.2,0l-1.7-0.4l-48.3,20.4L770,543.1"/>
							<polyline class="st7" points="814.8,522 766.5,542.4 768.3,542.7 770,543.1 818.3,522.7 816.6,522.3 814.8,522 							"/>
							<path class="st8" d="M766.5,542.4l-1.3,0.6c0.7-0.3,2.1-0.4,3.1-0.2L766.5,542.4"/>
							<path class="st8" d="M816.1,521.4l-1.3,0.6l1.8,0.4C815.6,522.1,815.4,521.7,816.1,521.4"/>
							<path class="st3" d="M835.8,557.5l-2.6,1.1c0.9,0.2,2.2,0.1,2.9-0.2C836.7,558.2,836.6,557.8,835.8,557.5"/>
							<path class="st7" d="M770,543.1l-1.3,0.6l-1.3,0.6l0.6,0.1l3-0.2l0.4,0.9l61.7,13.5c0.1,0,0.1,0,0.2,0l2.6-1.1
								c-0.1,0-0.1,0-0.2,0L770,543.1"/>
							<path class="st8" d="M765.6,543.9l1.7,0.4l1.3-0.6C768,544,766.6,544.1,765.6,543.9"/>
							<path class="st8" d="M768.3,542.7c1,0.2,1.2,0.6,0.4,0.9l1.3-0.6L768.3,542.7"/>
							<path class="st3" d="M765.2,542.9c-0.7,0.3-0.5,0.7,0.4,0.9c1,0.2,2.3,0.1,3.1-0.2c0.7-0.3,0.5-0.7-0.4-0.9
								C767.3,542.5,765.9,542.6,765.2,542.9"/>
							<path class="st3" d="M886.8,536l-2.6,1.1c0.9,0.2,2.2,0.1,2.9-0.2S887.6,536.3,886.8,536"/>
							<path class="st7" d="M821,521.6l-1.3,0.6l-1.3,0.6l63.9,14l1.7,0.4c0.1,0,0.1,0,0.2,0l2.6-1.1c-0.1,0-0.1,0-0.2,0l-1.7-0.4
								L821,521.6"/>
							<path class="st8" d="M819.2,521.2c1,0.2,1.2,0.6,0.4,0.9l1.3-0.6L819.2,521.2"/>
							<path class="st8" d="M816.6,522.3l1.7,0.4l1.3-0.6C818.9,522.5,817.5,522.6,816.6,522.3"/>
							<path class="st3" d="M816.1,521.4c-0.7,0.3-0.5,0.7,0.4,0.9c1,0.2,2.3,0.1,3.1-0.2c0.7-0.3,0.5-0.7-0.4-0.9
								C818.2,521,816.9,521.1,816.1,521.4"/>
							<path class="st3" d="M972.1,456.7c1,0.2,1.2,0.6,0.4,0.9l65.8,14.4l-48.8,20.6l0.1,0.3l-0.9,0l0,0c0.8,0.2,0.9,0.6,0.2,0.9
								l51-21.5c0.7-0.3,0.5-0.7-0.4-0.9L972.1,456.7"/>
							<path class="st6" d="M988.6,493C988.7,493,988.7,493,988.6,493L988.6,493L988.6,493 M972.5,457.6l-1.3,0.6l0.6,0.1l3-0.2
								l0.4,0.9l59.9,13.1l-46,19.4l0.4,1.1l48.8-20.6L972.5,457.6"/>
							<path class="st3" d="M969,456.9l3.5,0.8c0.7-0.3,0.5-0.7-0.4-0.9C971.1,456.5,969.7,456.6,969,456.9"/>
							<polyline class="st7" points="969,456.9 967.7,457.4 919.4,477.8 921.1,478.2 922.9,478.6 971.2,458.2 972.5,457.6 
								969,456.9 							"/>
							<path class="st8" d="M919.4,477.8l-1.3,0.6c0.7-0.3,2.1-0.4,3.1-0.2L919.4,477.8"/>
							<path class="st3" d="M988.7,493l-2.6,1.1c0.9,0.2,2.2,0.1,2.9-0.2C989.6,493.6,989.5,493.2,988.7,493"/>
							<path class="st7" d="M922.9,478.6l-1.3,0.6l-1.3,0.6l65.6,14.4c0.1,0,0.1,0,0.2,0l2.6-1.1c0,0,0,0,0,0l-3,0.2l-0.4-0.9
								L922.9,478.6"/>
							<path class="st8" d="M918.5,479.3l1.7,0.4l1.3-0.6C920.8,479.5,919.4,479.5,918.5,479.3"/>
							<path class="st8" d="M921.1,478.2c1,0.2,1.2,0.6,0.4,0.9l1.3-0.6L921.1,478.2"/>
							<path class="st3" d="M918,478.4c-0.7,0.3-0.5,0.7,0.4,0.9c1,0.2,2.3,0.1,3.1-0.2c0.7-0.3,0.5-0.7-0.4-0.9
								C920.1,478,918.8,478.1,918,478.4"/>
							<path class="st3" d="M495.7,483.9l-51,21.5c-0.7,0.3-0.5,0.7,0.4,0.9l67.4,14.8c-1-0.2-1.2-0.6-0.4-0.9l1.3-0.6l-63.9-14
								l48.3-20.4l-1.7-0.4C495.2,484.6,495,484.2,495.7,483.9"/>
							<path class="st3" d="M513.4,519.6l-1.3,0.6c-0.7,0.3-0.5,0.7,0.4,0.9c1,0.2,2.3,0.1,3.1-0.2l1.3-0.6L513.4,519.6"/>
							<polyline class="st7" points="561.7,499.2 517.1,518.1 517.4,518.8 515.1,518.9 513.4,519.6 516.9,520.4 565.2,500 
								563.5,499.6 561.7,499.2 							"/>
							<path class="st8" d="M563.5,499.6l1.8,0.4l1.3-0.6C565.8,499.7,564.5,499.8,563.5,499.6"/>
							<path class="st3" d="M648.5,419.3l-51,21.5c0.7-0.3,2.1-0.4,3.1-0.2l1.7,0.4l48.3-20.4l-1.7-0.4
								C648,420.1,647.8,419.7,648.5,419.3"/>
							<polyline class="st7" points="714.6,434.7 666.3,455.1 668,455.4 669.8,455.8 718.1,435.4 716.3,435 714.6,434.7 							"/>
							<path class="st8" d="M668,455.4c1,0.2,1.2,0.6,0.4,0.9l1.3-0.6L668,455.4"/>
							<path class="st8" d="M716.3,435l1.8,0.4l1.3-0.6C718.7,435.2,717.3,435.3,716.3,435"/>
							<path class="st3" d="M597.6,440.9l-51,21.5c0.7-0.3,2.1-0.4,3.1-0.2l1.7,0.4l48.3-20.4l-1.7-0.4
								C597.1,441.6,596.9,441.2,597.6,440.9"/>
							<polyline class="st7" points="663.6,456.2 615.3,476.6 617.1,477 618.8,477.3 667.1,456.9 665.4,456.6 663.6,456.2 							
								"/>
							<path class="st8" d="M665.4,456.6l1.8,0.4l1.3-0.6C667.7,456.7,666.4,456.8,665.4,456.6"/>
							<path class="st8" d="M617.1,477c1,0.2,1.2,0.6,0.4,0.9l1.3-0.6L617.1,477"/>
							<path class="st3" d="M597.6,440.9c-0.7,0.3-0.5,0.7,0.4,0.9l1.7,0.4l2.6-1.1l-1.7-0.4C599.7,440.5,598.3,440.6,597.6,440.9"
								/>
							<polyline class="st7" points="602.4,441.1 599.8,442.2 663.6,456.2 665,455.6 666.3,455.1 602.4,441.1 							"/>
							<path class="st8" d="M666.3,455.1l-1.3,0.6c0.7-0.3,2.1-0.4,3.1-0.2L666.3,455.1"/>
							<path class="st8" d="M665,455.6l-1.3,0.6l1.7,0.4C664.4,456.3,664.2,455.9,665,455.6"/>
							<path class="st3" d="M665,455.6c-0.7,0.3-0.5,0.7,0.4,0.9c1,0.2,2.3,0.1,3.1-0.2c0.7-0.3,0.5-0.7-0.4-0.9
								C667.1,455.2,665.7,455.3,665,455.6"/>
							<path class="st3" d="M546.6,462.4l-51,21.5c0.7-0.3,2.1-0.4,3.1-0.2l1.7,0.4l48.3-20.4l-1.7-0.4
								C546.1,463.1,545.9,462.7,546.6,462.4"/>
							<polyline class="st7" points="612.7,477.7 564.4,498.1 566.1,498.5 567.9,498.8 616.2,478.4 614.4,478.1 612.7,477.7 							
								"/>
							<path class="st8" d="M566.1,498.5c1,0.2,1.2,0.6,0.4,0.9l1.3-0.6L566.1,498.5"/>
							<path class="st8" d="M614.4,478.1l1.8,0.4l1.3-0.6C616.8,478.2,615.4,478.3,614.4,478.1"/>
							<path class="st3" d="M495.7,483.9c-0.7,0.3-0.5,0.7,0.4,0.9l1.7,0.4l0.9-0.4l-0.3-0.6l2-0.1l0,0l-1.7-0.4
								C497.8,483.5,496.4,483.6,495.7,483.9"/>
							<path class="st7" d="M502.7,484.6l0.8,1.9l58.2,12.8l1.3-0.6l1.3-0.6L502.7,484.6 M498.8,484.8l-0.9,0.4l1.2,0.3L498.8,484.8
								 M500.5,484.1L500.5,484.1L500.5,484.1L500.5,484.1"/>
							<path class="st8" d="M563.1,498.6l-1.3,0.6l1.7,0.4C562.5,499.4,562.3,498.9,563.1,498.6"/>
							<path class="st8" d="M564.4,498.1l-1.3,0.6c0.7-0.3,2.1-0.4,3.1-0.2L564.4,498.1"/>
							<path class="st3" d="M563.1,498.6c-0.7,0.3-0.5,0.7,0.4,0.9c1,0.2,2.3,0.1,3.1-0.2c0.7-0.3,0.5-0.7-0.4-0.9
								C565.2,498.3,563.8,498.3,563.1,498.6"/>
							<path class="st3" d="M546.6,462.4c-0.7,0.3-0.5,0.7,0.4,0.9l1.7,0.4l2.6-1.1l-1.7-0.4C548.7,462,547.4,462.1,546.6,462.4"/>
							<polyline class="st7" points="551.4,462.6 548.8,463.7 612.7,477.7 614,477.1 615.3,476.6 551.4,462.6 							"/>
							<path class="st8" d="M615.3,476.6l-1.3,0.6c0.7-0.3,2.1-0.4,3.1-0.2L615.3,476.6"/>
							<path class="st8" d="M614,477.1l-1.3,0.6l1.7,0.4C613.5,477.9,613.3,477.4,614,477.1"/>
							<path class="st3" d="M614,477.1c-0.7,0.3-0.5,0.7,0.4,0.9c1,0.2,2.3,0.1,3.1-0.2c0.7-0.3,0.5-0.7-0.4-0.9
								C616.1,476.7,614.7,476.8,614,477.1"/>
							<path class="st3" d="M699.5,397.8l-51,21.5c0.7-0.3,2.1-0.4,3.1-0.2l1.7,0.4l47.4-20l-0.1-0.3l1.1-0.1l1.3-0.5l63.9,14
								c0.7-0.3,2.1-0.4,3.1-0.2l-67.4-14.8C701.6,397.5,700.2,397.5,699.5,397.8"/>
							<polyline class="st6" points="703,398.6 701.7,399.1 704.6,399 705,399.9 765.6,413.2 719,432.8 766.9,412.6 703,398.6 
															"/>
							<path class="st3" d="M766.9,412.6l3.5,0.8c0.7-0.3,0.5-0.7-0.4-0.9C769,412.2,767.6,412.3,766.9,412.6"/>
							<polyline class="st7" points="766.9,412.6 719,432.8 719.5,433.8 718.5,433.8 719,433.9 720.7,434.3 770.4,413.4 
								766.9,412.6 							"/>
							<path class="st8" d="M719,433.9c1,0.2,1.2,0.6,0.4,0.9l1.3-0.6L719,433.9"/>
							<path class="st3" d="M648.5,419.3c-0.7,0.3-0.5,0.7,0.4,0.9l1.7,0.4l2.6-1.1l-1.7-0.4C650.6,419,649.3,419,648.5,419.3"/>
							<polyline class="st7" points="653.3,419.6 650.7,420.7 714.6,434.7 715.9,434.1 716.3,433.9 715.5,434 715.1,433.1 
								653.3,419.6 							"/>
							<path class="st8" d="M715.9,434.1l-1.3,0.6l1.7,0.4C715.4,434.8,715.2,434.4,715.9,434.1"/>
							<path class="st8" d="M718.3,433.8c0.2,0,0.5,0.1,0.7,0.1l-0.5-0.1L718.3,433.8 M716.3,433.9l-0.4,0.2
								c0.2-0.1,0.4-0.1,0.6-0.2L716.3,433.9"/>
							<path class="st3" d="M715.9,434.1c-0.7,0.3-0.5,0.7,0.4,0.9c1,0.2,2.3,0.1,3.1-0.2c0.7-0.3,0.5-0.7-0.4-0.9
								c-0.2,0-0.4-0.1-0.7-0.1l-1.8,0.1C716.3,434,716.1,434,715.9,434.1"/>
							<polyline class="st9" points="725.8,485.3 733.5,489 725.4,492.8 739.4,491.5 748.3,494.9 749.3,490.4 763,488.7 
								749.5,487.2 749.1,482.8 739.8,486.3 725.8,485.3 							"/>
							<polyline class="st10" points="498.5,484.2 498.8,484.8 499.1,485.5 513.4,519 515.1,518.9 517.4,518.8 517.1,518.1 
								503.5,486.4 502.7,484.6 502.5,484 500.5,484.1 500.5,484.1 498.5,484.2 							"/>
							<polyline class="st10" points="837.6,429.2 852,463 852.1,463.1 852.2,463.3 852.4,464 854.6,463.9 855.4,463.8 855.5,463.8 
								856.4,463.8 856.3,463.5 855.5,461.6 841.9,429.9 841.5,429 838.5,429.1 837.6,429.2 							"/>
							<polyline class="st10" points="970.8,458.4 985.3,492.3 985.7,493.2 988.6,493 988.7,493 989.6,493 989.5,492.7 989,491.6 
								975.1,459.1 974.7,458.2 971.8,458.3 970.8,458.4 							"/>
							<polyline class="st10" points="633.8,515.2 648.2,549.1 648.2,549.1 648.6,550 651.6,549.9 651.7,549.9 652.6,549.8 
								652.5,549.5 651.7,547.6 638.1,515.9 637.7,515 634.7,515.2 633.8,515.2 							"/>
							<polyline class="st10" points="767,544.4 781.5,578.3 781.9,579.2 784.8,579 784.9,579 785.8,579 785.7,578.7 785.2,577.7 
								771.3,545.1 770.9,544.2 767.9,544.4 767,544.4 							"/>
							<polyline class="st10" points="700.6,399.2 700.8,399.5 715.1,433.1 715.5,434 716.3,433.9 716.5,433.9 718.3,433.8 
								718.5,433.8 719.5,433.8 719,432.8 705,399.9 704.6,399 701.7,399.1 700.6,399.2 							"/>
							<path class="st11" d="M414,475l-8.5,3.6l0.7,0.2l8.5-3.6L414,475 M410.2,481.5c-0.7,0.3-1.4,0.4-2.1,0.5
								c-0.7,0-1.5,0-2.4-0.2l-9.4-2.1c-0.9-0.2-1.4-0.4-1.5-0.6c-0.1-0.2,0.2-0.5,0.9-0.7l14.2-6c0.7-0.3,1.3-0.4,2-0.5
								c0.7,0,1.5,0,2.4,0.2l9.4,2.1c0.9,0.2,1.4,0.4,1.5,0.6c0.1,0.2-0.2,0.5-0.9,0.7L410.2,481.5 M409.3,472.2l-14.2,6
								c-0.4,0.1-0.6,0.3-0.8,0.5c-0.2,0.2-0.3,0.3-0.3,0.4l0.8,4.6c0,0.2,0.2,0.3,0.5,0.5c0.3,0.1,0.7,0.3,1.4,0.4l9.4,2.1
								c1.2,0.3,2.2,0.4,3.1,0.3c0.9-0.1,1.7-0.3,2.6-0.6l14.2-6c0.4-0.1,0.6-0.3,0.8-0.4c0.2-0.1,0.3-0.3,0.3-0.4l-0.8-4.6
								c0-0.2-0.2-0.3-0.5-0.5c-0.3-0.1-0.7-0.3-1.4-0.4l-9.4-2.1c-1.2-0.3-2.2-0.4-3.1-0.3C411,471.6,410.1,471.8,409.3,472.2"/>
							<path class="st11" d="M433.7,454.8l-8.8,3.7c-3.4,1.4-4.9,2.5-4.7,3.3c0.3,0.8,2.1,1.5,5.4,2.3l19.6,4.3
								c3.2,0.7,6.1,1,8.6,0.8c2.5-0.2,5.5-1,8.9-2.4l8.8-3.7l-0.7-0.2l-8.8,3.7c-3.2,1.3-5.9,2.1-8.2,2.3c-2.3,0.2-5-0.1-8-0.7
								l-19.6-4.3c-3.1-0.7-4.7-1.4-4.9-2.1c-0.2-0.7,1.3-1.8,4.4-3.1l8.8-3.7L433.7,454.8 M467.8,468.7c-4.4,1.9-8.9,3-13.3,3.4
								c-4.5,0.4-9.1,0.1-14-1l-21.8-4.8c-4.9-1.1-7.4-2.3-7.6-3.7c-0.2-1.4,1.9-3.1,6.3-4.9l12.9-5.5c0.7-0.3,1.4-0.4,2.1-0.5
								c0.7,0,1.5,0,2.4,0.2l8.5,1.9c0.9,0.2,1.4,0.4,1.5,0.6c0.1,0.2-0.2,0.5-0.9,0.7l-10.6,4.5c-1.1,0.5-1.6,0.9-1.6,1.2
								c0.1,0.4,0.7,0.7,1.8,0.9l16.7,3.6c1.2,0.3,2.3,0.3,3.3,0.2c1.1-0.1,2.1-0.4,3.2-0.9l10.6-4.5c0.7-0.3,1.4-0.4,2.1-0.5
								c0.7,0,1.5,0,2.4,0.2l8.3,1.8c0.9,0.2,1.4,0.4,1.5,0.6c0.1,0.2-0.2,0.5-0.9,0.7L467.8,468.7 M429.6,452l-12.9,5.5
								c-2.3,1-4,1.9-5.1,2.7c-1.1,0.8-1.6,1.6-1.5,2.4l0.7,4.6c0.2,0.7,0.9,1.4,2.2,2.1c1.3,0.7,3.3,1.3,5.8,1.8l19.7,4.3
								c5,1.1,10.2,1.5,15.6,1.3c5.4-0.2,10.4-1.3,15-3.3l12.9-5.5c0.4-0.1,0.6-0.3,0.8-0.5c0.2-0.2,0.2-0.3,0.2-0.4l-0.7-4.6
								c0-0.2-0.2-0.3-0.5-0.5c-0.3-0.1-0.7-0.3-1.4-0.4l-8.3-1.8c-1.1-0.2-2.1-0.3-3-0.3c-0.9,0.1-1.8,0.3-2.6,0.6l-10.6,4.5
								c-0.9,0.4-1.8,0.6-2.6,0.7c-0.9,0.1-1.8,0.1-2.8-0.2l-11.8-2.6l6.5-2.7c0.4-0.1,0.6-0.3,0.8-0.5c0.2-0.2,0.2-0.3,0.2-0.4
								l-0.7-4.6c0-0.2-0.2-0.3-0.5-0.5c-0.3-0.1-0.7-0.3-1.4-0.4l-8.5-1.9c-1.1-0.2-2.1-0.3-3-0.3
								C431.3,451.5,430.4,451.7,429.6,452"/>
							<path class="st11" d="M493.2,449.2c-0.6,0.1-1.2,0.2-1.7,0.1c-0.5,0-1-0.1-1.4-0.2l-13.2-2.9c0.6-0.1,1.1-0.2,1.6-0.2
								c0.5,0,1,0.1,1.4,0.2L493.2,449.2 M471.9,442.7c-1.9,0.8-2.8,1.4-2.7,1.7c0.1,0.4,0.6,0.6,1.5,0.8l18.8,4.1
								c0.9,0.2,2,0.3,3.1,0.2c1.2-0.1,2.7-0.5,4.6-1.3c1.9-0.8,2.8-1.4,2.7-1.7c-0.1-0.4-0.6-0.6-1.6-0.8l-18.8-4.1
								c-0.9-0.2-1.9-0.2-3.1-0.2C475.4,441.4,473.9,441.9,471.9,442.7 M503.5,449.7c-3.9,1.7-7.4,2.6-10.4,2.8
								c-3,0.2-5.8,0.1-8.4-0.5l-20.6-4.5c-2.6-0.6-4-1.3-4.2-2.3c-0.2-0.9,1.7-2.2,5.6-3.9c3.9-1.7,7.4-2.6,10.5-2.9
								c3.1-0.3,5.9-0.1,8.5,0.5l20.6,4.5c2.6,0.6,4,1.3,4.2,2.3C509.3,446.7,507.5,448,503.5,449.7 M464.7,441.2
								c-4.1,1.7-6.1,3.1-5.8,4.1c0.3,1,1.8,1.8,4.6,2.4l20.6,4.5c2.8,0.6,5.8,0.8,9,0.6c3.2-0.2,6.9-1.2,11-3
								c4.1-1.7,6.1-3.1,5.8-4.2c-0.2-1-1.7-1.8-4.5-2.5l-20.6-4.5c-2.8-0.6-5.8-0.8-9.1-0.5C472.5,438.4,468.8,439.4,464.7,441.2
								 M510.8,451.2c-3.3,1.4-6.3,2.5-9.2,3.2c-2.9,0.8-5.5,1.3-8,1.5c-2.5,0.2-4.8,0.3-7,0.1c-2.2-0.2-4.4-0.5-6.6-1l-23.9-5.2
								c-2.1-0.5-3.9-1-5.1-1.6c-1.3-0.6-1.9-1.3-2-2.1c0-0.8,0.7-1.7,2.1-2.8c1.5-1.1,3.8-2.3,7.1-3.7c3.3-1.4,6.3-2.5,9.2-3.2
								c2.8-0.8,5.5-1.2,8-1.5c2.5-0.2,4.8-0.3,7.1-0.1c2.2,0.2,4.4,0.5,6.6,1l23.9,5.2c2.1,0.5,3.9,1,5.1,1.6
								c1.3,0.6,1.9,1.3,1.9,2.1c0,0.8-0.7,1.7-2.1,2.8C516.4,448.6,514.1,449.8,510.8,451.2 M457.6,439.5c-3.5,1.5-6,2.8-7.4,3.9
								c-1.4,1.1-2.1,2.1-1.9,2.9l0.7,4.6c0.1,0.8,0.9,1.5,2.2,2.1c1.4,0.6,3.2,1.1,5.3,1.6l21.8,4.8c2.2,0.5,4.5,0.8,7.1,1.1
								c2.5,0.2,5.2,0.3,8.1,0.1c2.8-0.2,5.8-0.6,9-1.4c3.2-0.7,6.5-1.8,9.9-3.3c3.5-1.5,6-2.8,7.4-3.9c1.5-1.1,2.1-2.1,1.9-2.9
								l-0.7-4.5c-0.1-0.8-0.8-1.5-2.2-2.1c-1.4-0.6-3.1-1.1-5.3-1.6l-23.9-5.2c-2.2-0.5-4.4-0.8-6.7-1c-2.3-0.2-4.7-0.2-7.3,0
								c-2.6,0.2-5.3,0.7-8.3,1.5C464.3,437,461.1,438.1,457.6,439.5"/>
							<path class="st11" d="M536.8,430.6l-14.5-3.2c0.5-0.1,1-0.1,1.6-0.1c0.6,0,1.1,0.1,1.8,0.2l12.1,2.7L536.8,430.6
								 M519.4,423.1l-6.3,2.7l23.8,5.2l6.3-2.7c0.8-0.4,1.2-0.7,1-1c-0.2-0.3-0.8-0.6-2-0.8l-17-3.7c-1.2-0.3-2.2-0.4-3.2-0.3
								C521.2,422.6,520.3,422.8,519.4,423.1 M537.5,434.8l-36.4-8l12.3-5.2c1.7-0.7,3.2-1.2,4.7-1.6s2.9-0.5,4.3-0.6
								c1.4-0.1,2.7,0,4,0.1c1.3,0.2,2.6,0.4,3.9,0.6l18.5,4.1c1.3,0.3,2.3,0.6,3.2,0.9c0.9,0.3,1.4,0.7,1.7,1.1
								c0.2,0.4,0,0.9-0.6,1.4c-0.6,0.5-1.7,1.2-3.4,1.9L537.5,434.8 M512.6,421.5l-12.8,5.4l37.8,8.3l12.8-5.4c1.8-0.8,3-1.4,3.7-2
								c0.6-0.6,0.8-1.1,0.6-1.5c-0.2-0.4-0.8-0.8-1.8-1.2c-1-0.3-2.1-0.7-3.5-1l-18.5-4.1c-1.4-0.3-2.7-0.5-4.1-0.7
								c-1.4-0.2-2.8-0.2-4.3-0.2c-1.5,0.1-3,0.3-4.6,0.6C516.2,420.2,514.4,420.7,512.6,421.5 M540.1,438.2
								c-0.7,0.3-1.4,0.4-2.1,0.5s-1.5,0-2.4-0.2l-45.3-9.9c-0.9-0.2-1.4-0.4-1.5-0.6s0.2-0.5,0.9-0.7l17.8-7.5
								c4.4-1.9,8.8-3,13.3-3.4c4.5-0.4,9.1-0.1,14,1l21.8,4.8c4.9,1.1,7.4,2.3,7.6,3.7c0.2,1.4-1.9,3-6.3,4.9L540.1,438.2
								 M506.8,419.4L489,427c-0.4,0.1-0.6,0.3-0.8,0.5c-0.2,0.2-0.3,0.3-0.3,0.4l0.8,4.6c0,0.2,0.2,0.3,0.5,0.5
								c0.3,0.1,0.7,0.3,1.4,0.4l45.3,9.9c1.1,0.2,2.1,0.3,3,0.3c0.9-0.1,1.8-0.3,2.6-0.6l17.8-7.5c2.3-1,4-1.9,5-2.7
								c1.1-0.9,1.5-1.6,1.4-2.4l-0.7-4.6c-0.2-0.7-0.9-1.4-2.2-2.1c-1.3-0.7-3.2-1.3-5.8-1.8l-21.8-4.8c-5-1.1-9.9-1.5-14.6-1.1
								C516.1,416.3,511.4,417.5,506.8,419.4"/>
							<path class="st11" d="M582.2,411.6c-0.6,0.1-1.2,0.2-1.7,0.1c-0.5,0-1-0.1-1.4-0.2l-13.2-2.9c0.6-0.1,1.1-0.2,1.6-0.2
								c0.5,0,1,0.1,1.4,0.2L582.2,411.6 M561,405.1c-1.9,0.8-2.8,1.4-2.7,1.7c0.1,0.4,0.6,0.6,1.5,0.8l18.8,4.1
								c0.9,0.2,2,0.3,3.1,0.2c1.2-0.1,2.7-0.5,4.6-1.3c1.9-0.8,2.8-1.4,2.7-1.7c-0.1-0.4-0.6-0.6-1.6-0.8l-18.8-4.1
								c-0.9-0.2-1.9-0.2-3.1-0.2C564.4,403.8,562.9,404.3,561,405.1 M592.6,412.1c-3.9,1.7-7.4,2.6-10.4,2.8
								c-3,0.2-5.8,0.1-8.4-0.5l-20.6-4.5c-2.6-0.6-4-1.3-4.2-2.3c-0.2-0.9,1.7-2.2,5.6-3.9c3.9-1.7,7.4-2.6,10.5-2.9
								c3.1-0.3,5.9-0.1,8.5,0.5l20.6,4.5c2.6,0.6,4,1.3,4.2,2.3C598.4,409.1,596.5,410.4,592.6,412.1 M553.8,403.6
								c-4.1,1.7-6.1,3.1-5.8,4.1c0.3,1,1.8,1.8,4.6,2.4l20.6,4.5c2.8,0.6,5.8,0.8,9,0.6c3.2-0.2,6.9-1.2,11-3
								c4.1-1.7,6.1-3.1,5.8-4.2c-0.2-1-1.7-1.8-4.5-2.5l-20.6-4.5c-2.8-0.6-5.8-0.8-9.1-0.5C561.6,400.8,557.9,401.8,553.8,403.6
								 M599.8,413.6c-3.3,1.4-6.3,2.5-9.2,3.2c-2.9,0.8-5.5,1.3-8,1.5c-2.5,0.2-4.8,0.3-7,0.1c-2.2-0.2-4.4-0.5-6.6-1l-23.9-5.2
								c-2.1-0.5-3.9-1-5.1-1.6c-1.3-0.6-1.9-1.3-2-2.1c0-0.8,0.7-1.7,2.1-2.8c1.4-1.1,3.8-2.3,7.1-3.7c3.3-1.4,6.3-2.5,9.2-3.2
								c2.8-0.7,5.5-1.2,8-1.5c2.5-0.2,4.8-0.3,7.1-0.1c2.2,0.2,4.4,0.5,6.6,1l23.9,5.2c2.1,0.5,3.9,1,5.1,1.6
								c1.3,0.6,1.9,1.3,1.9,2.1c0,0.8-0.7,1.7-2.1,2.8C605.5,411,603.1,412.2,599.8,413.6 M546.7,401.9c-3.5,1.5-6,2.8-7.4,3.9
								c-1.4,1.1-2.1,2.1-1.9,2.9l0.7,4.6c0.1,0.8,0.9,1.5,2.2,2.1c1.4,0.6,3.2,1.1,5.3,1.6l21.8,4.8c2.2,0.5,4.6,0.8,7.1,1.1
								c2.5,0.2,5.2,0.3,8.1,0.1c2.8-0.2,5.8-0.6,9-1.4c3.2-0.7,6.5-1.8,9.9-3.3c3.5-1.5,6-2.8,7.4-3.9c1.5-1.1,2.1-2.1,1.9-2.9
								L610,407c-0.1-0.8-0.8-1.5-2.2-2.1c-1.4-0.6-3.1-1.1-5.3-1.6l-23.9-5.2c-2.2-0.5-4.4-0.8-6.7-1c-2.3-0.2-4.7-0.2-7.3,0
								s-5.3,0.7-8.3,1.5C553.3,399.4,550.1,400.5,546.7,401.9"/>
							<path class="st11" d="M613.4,390.8l-8.5,3.6l0.7,0.2l8.5-3.6L613.4,390.8 M609.6,397.3c-0.7,0.3-1.4,0.4-2.1,0.5
								c-0.7,0-1.5,0-2.4-0.2l-9.4-2.1c-0.9-0.2-1.4-0.4-1.5-0.6c-0.1-0.2,0.2-0.5,0.9-0.7l14.2-6c0.7-0.3,1.3-0.4,2-0.5
								c0.7,0,1.5,0,2.4,0.2l9.4,2.1c0.9,0.2,1.4,0.4,1.5,0.6c0.1,0.2-0.2,0.5-0.9,0.7L609.6,397.3 M608.7,388l-14.2,6
								c-0.4,0.2-0.6,0.3-0.8,0.5c-0.2,0.2-0.3,0.3-0.3,0.4l0.8,4.6c0,0.2,0.2,0.3,0.5,0.5c0.3,0.1,0.7,0.3,1.4,0.4l9.4,2.1
								c1.2,0.3,2.2,0.4,3.1,0.3c0.9-0.1,1.7-0.3,2.6-0.6l14.2-6c0.4-0.1,0.6-0.3,0.8-0.4c0.2-0.1,0.3-0.3,0.3-0.4l-0.8-4.6
								c0-0.2-0.2-0.3-0.5-0.5c-0.3-0.1-0.7-0.3-1.4-0.4l-9.4-2.1c-1.2-0.3-2.2-0.4-3.1-0.3C610.4,387.4,609.5,387.6,608.7,388"/>
							<path d="M492.7,507.7c-0.2,0.1-0.4,0.1-0.5,0.1c-0.2,0-0.3,0-0.6-0.1l-18.8-4.1c-0.4-0.1-0.5-0.2-0.2-0.3l1.8-0.7
								c0.3-0.1,0.6-0.1,1,0l18.8,4.1c0.2,0.1,0.4,0.1,0.4,0.1s0,0.1-0.2,0.2L492.7,507.7 M471,500.6l-5.7,2.4
								c-1.1,0.5-1.5,0.9-1.2,1.3c0.3,0.4,1,0.7,2.3,1l22.4,4.9c1.2,0.3,2.5,0.4,3.8,0.3c1.3,0,2.5-0.3,3.6-0.7l5.7-2.4
								c1.1-0.5,1.5-0.9,1.2-1.3c-0.3-0.4-1.1-0.7-2.3-1l-22.4-4.9c-1.2-0.3-2.5-0.4-3.8-0.3C473.2,499.9,472,500.1,471,500.6"/>
							<polyline points="517.4,495.8 512.5,497.9 516.5,499.9 518.4,499.1 537.8,503.3 536.3,504 542,505.2 549.9,501.9 
								544.1,500.6 542.6,501.3 517.4,495.8 							"/>
							<path d="M965.3,480.6c-0.2,0.1-0.4,0.1-0.5,0.1c-0.1,0-0.3,0-0.6-0.1l-18.8-4.1c-0.4-0.1-0.5-0.2-0.2-0.3l1.8-0.7
								c0.3-0.1,0.6-0.1,1,0l18.8,4.1c0.2,0.1,0.4,0.1,0.4,0.1c0,0,0,0.1-0.2,0.2L965.3,480.6 M943.6,473.4l-5.7,2.4
								c-1.1,0.5-1.5,0.9-1.2,1.3c0.3,0.4,1.1,0.7,2.3,1l22.4,4.9c1.2,0.3,2.5,0.4,3.8,0.3c1.3,0,2.5-0.3,3.6-0.7l5.7-2.4
								c1.1-0.5,1.5-0.9,1.2-1.3c-0.3-0.4-1.1-0.7-2.3-1L951,473c-1.2-0.3-2.5-0.4-3.8-0.3C945.8,472.7,944.6,472.9,943.6,473.4"/>
							<polyline points="990,468.6 985.1,470.7 989.1,472.7 991,471.9 1010.4,476.1 1008.9,476.8 1014.6,478 1022.5,474.7 
								1016.7,473.4 1015.2,474.1 990,468.6 							"/>
							<path d="M696.5,421.7c-0.2,0.1-0.4,0.1-0.5,0.1c-0.2,0-0.3,0-0.6-0.1l-18.8-4.1c-0.4-0.1-0.5-0.2-0.2-0.3l1.8-0.7
								c0.3-0.1,0.6-0.1,1,0l18.8,4.1c0.2,0.1,0.4,0.1,0.4,0.1c0,0,0,0.1-0.2,0.2L696.5,421.7 M674.8,414.5l-5.7,2.4
								c-1.1,0.5-1.5,0.9-1.2,1.3c0.3,0.4,1.1,0.7,2.3,1l22.4,4.9c1.2,0.3,2.5,0.4,3.8,0.3c1.3,0,2.5-0.3,3.6-0.7l5.7-2.4
								c1.1-0.5,1.5-0.9,1.2-1.3c-0.3-0.4-1.1-0.7-2.3-1l-22.4-4.9c-1.2-0.3-2.5-0.4-3.8-0.3C677.1,413.8,675.9,414.1,674.8,414.5"
								/>
							<polyline points="721.3,409.7 716.3,411.8 720.3,413.8 722.2,413 741.6,417.3 740.1,417.9 745.8,419.2 753.7,415.8 
								748,414.6 746.4,415.2 721.3,409.7 							"/>
							<path d="M761.4,566.6c-0.2,0.1-0.4,0.1-0.5,0.1c-0.1,0-0.3,0-0.6-0.1l-18.8-4.1c-0.4-0.1-0.5-0.2-0.2-0.3l1.8-0.7
								c0.3-0.1,0.6-0.1,1,0l18.8,4.1c0.2,0.1,0.4,0.1,0.4,0.1c0,0,0,0.1-0.2,0.2L761.4,566.6 M739.7,559.5l-5.7,2.4
								c-1.1,0.5-1.5,0.9-1.2,1.3c0.3,0.4,1,0.7,2.3,1l22.4,4.9c1.2,0.3,2.5,0.4,3.8,0.3c1.3,0,2.5-0.3,3.6-0.7l5.7-2.4
								c1.1-0.5,1.5-0.9,1.2-1.3c-0.3-0.4-1.1-0.7-2.3-1l-22.4-4.9c-1.2-0.3-2.5-0.4-3.8-0.3C742,558.8,740.8,559,739.7,559.5"/>
							<polyline points="786.2,554.7 781.2,556.8 785.2,558.8 787.2,557.9 806.5,562.2 805,562.8 810.8,564.1 818.6,560.8 
								812.9,559.5 811.3,560.2 786.2,554.7 							"/>
						</g>
					</g>
				</g>
			</g>
		</g>
	</g>
</g>
<g>
	<g>
		<g class="st1">
			<g>
				<polygon class="st12" points="722,317.1 742.4,304.5 786.7,310 766.3,322.7 				"/>
			</g>
			<g>
				<polygon class="st13" points="766.3,322.7 786.7,310 786.6,356.6 766.2,369.2 				"/>
			</g>
			<g>
				<polygon class="st14" points="722,317.1 766.3,322.7 766.2,369.2 722,363.6 				"/>
			</g>
		</g>
		<g class="st1">
			<g class="st1">
				<defs>
					<path id="SVGID_3_" class="st1" d="M747.3,462.2l-20.4,12.6c-2.3,1.4-4.9,2.6-7.7,3.6l20.4-12.6
						C742.4,464.8,745,463.6,747.3,462.2z"/>
				</defs>
				<clipPath id="SVGID_4_">
					<use xlink:href="#SVGID_3_"  style="overflow:visible;"/>
				</clipPath>
				<g class="st15">
					<path class="st16" d="M719.2,478.4l20.4-12.6c0.8-0.3,1.7-0.6,2.5-0.9l-20.4,12.6C720.8,477.8,720,478.1,719.2,478.4"/>
					<path class="st17" d="M721.6,477.5l20.4-12.6c1.9-0.8,3.6-1.7,5.2-2.7l-20.4,12.6C725.3,475.8,723.5,476.7,721.6,477.5"/>
				</g>
			</g>
			<g class="st1">
				<defs>
					<path id="SVGID_5_" class="st1" d="M762.7,478.9l-20.4,12.6c6.4-4,11.4-9,15-15.2c5.8-9.8,8.7-23.2,8.7-40.3l20.4-12.6
						c0,17.1-2.9,30.5-8.7,40.3C774.1,469.8,769.1,474.9,762.7,478.9z"/>
				</defs>
				<clipPath id="SVGID_6_">
					<use xlink:href="#SVGID_5_"  style="overflow:visible;"/>
				</clipPath>
				<g class="st18">
					<path class="st19" d="M766.1,435.9l20.4-12.6c0,1.9,0,3.8-0.1,5.6l-20.4,12.6C766,439.7,766,437.8,766.1,435.9"/>
					<path class="st20" d="M765.9,441.5l20.4-12.6c-0.1,2.2-0.2,4.3-0.4,6.3l-20.4,12.6C765.7,445.8,765.8,443.7,765.9,441.5"/>
					<path class="st21" d="M765.5,447.8l20.4-12.6c-0.2,1.8-0.4,3.6-0.6,5.4l-20.4,12.6C765.1,451.5,765.3,449.7,765.5,447.8"/>
					<path class="st22" d="M764.9,453.2l20.4-12.6c-0.2,1.6-0.5,3.2-0.8,4.7L764,457.9C764.4,456.4,764.6,454.8,764.9,453.2"/>
					<path class="st23" d="M764,457.9l20.4-12.6c-0.3,1.5-0.6,2.9-1,4.2l-20.4,12.6C763.4,460.8,763.7,459.4,764,457.9"/>
					<path class="st24" d="M763.1,462.2l20.4-12.6c-0.4,1.3-0.7,2.6-1.1,3.9L761.9,466C762.3,464.8,762.7,463.5,763.1,462.2"/>
					<path class="st25" d="M761.9,466l20.4-12.6c-0.4,1.2-0.9,2.5-1.3,3.6l-20.4,12.6C761.1,468.5,761.5,467.3,761.9,466"/>
					<path class="st26" d="M760.6,469.7L781,457c-0.5,1.2-1,2.4-1.6,3.5L759,473.1C759.6,472,760.1,470.9,760.6,469.7"/>
					<path class="st27" d="M759,473.1l20.4-12.6c-0.5,1.1-1.1,2.1-1.7,3.1c-0.1,0.1-0.2,0.3-0.2,0.4l-20.4,12.6
						c0.1-0.1,0.2-0.3,0.2-0.4C757.9,475.3,758.5,474.2,759,473.1"/>
					<path class="st16" d="M757.1,476.6l20.4-12.6c-0.8,1.4-1.7,2.7-2.7,4l-20.4,12.6C755.4,479.3,756.3,478,757.1,476.6"/>
					<path class="st17" d="M754.4,480.6l20.4-12.6c-3.3,4.3-7.3,7.9-12.1,10.9l-20.4,12.6C747.1,488.5,751.2,484.9,754.4,480.6"/>
				</g>
			</g>
			<g>
				<polygon class="st13" points="766.1,389.4 786.5,376.8 786.4,423.3 766.1,435.9 				"/>
			</g>
			<g>
				<polygon class="st12" points="721.9,383.8 742.3,371.2 786.5,376.8 766.1,389.4 				"/>
			</g>
			<g>
				<path class="st14" d="M721.8,430.4l0.1-46.5l44.2,5.6l-0.1,46.5c0,17.1-2.9,30.5-8.7,40.3c-5.8,9.8-14.9,16.8-27.4,21
					l-10.8-18.8c8.2-2.8,14.3-7.6,18.2-14.4c3.9-6.8,6.1-17.1,6.5-30.8L721.8,430.4z"/>
			</g>
		</g>
	</g>
</g>
</svg>
